HIERARCHY
ROOT Hips
{
  OFFSET 13.6774 106.653 -34.4427
  CHANNELS 6 Xposition Yposition Zposition Zrotation Xrotation Yrotation
  JOINT ToSpine
  {
    OFFSET -2.69724 7.43032 -0.144315
    CHANNELS 3 Zrotation Xrotation Yrotation
    JOINT Spine
    {
      OFFSET -0.0310711 10.7595 1.96963
      CHANNELS 3 Zrotation Xrotation Yrotation
      JOINT Spine1
      {
        OFFSET 19.9056 3.91189 0.764692
        CHANNELS 3 Zrotation Xrotation Yrotation
        JOINT Neck
        {
          OFFSET 25.9749 7.03908 -0.130764
          CHANNELS 3 Zrotation Xrotation Yrotation
          JOINT Head
          {
            OFFSET 9.52751 0.295786 -0.907742
            CHANNELS 3 Zrotation Xrotation Yrotation
            End Site
            {
              OFFSET 16.4037 0.713936 2.7358
            }
          }
        }
        JOINT LeftShoulder
        {
          OFFSET 17.7449 4.33886 11.7777
          CHANNELS 3 Zrotation Xrotation Yrotation
          JOINT LeftArm
          {
            OFFSET 0.911315 1.27913 9.80584
            CHANNELS 3 Zrotation Xrotation Yrotation
            JOINT LeftForeArm
            {
              OFFSET 28.6126 1.18197 -3.53199
              CHANNELS 3 Zrotation Xrotation Yrotation
              JOINT LeftHand
              {
                OFFSET 27.5088 0.0218783 0.327423
                CHANNELS 3 Zrotation Xrotation Yrotation
                End Site
                {
                  OFFSET 18.6038 -0.000155887 0.382096
                }
              }
            }
          }
        }
        JOINT RightShoulder
        {
          OFFSET 17.1009 2.89543 -12.2328
          CHANNELS 3 Zrotation Xrotation Yrotation
          JOINT RightArm
          {
            OFFSET 1.4228 0.178766 -10.211
            CHANNELS 3 Zrotation Xrotation Yrotation
            JOINT RightForeArm
            {
              OFFSET 28.733 1.87905 2.64907
              CHANNELS 3 Zrotation Xrotation Yrotation
              JOINT RightHand
              {
                OFFSET 27.4588 0.290562 -0.101845
                CHANNELS 3 Zrotation Xrotation Yrotation
                End Site
                {
                  OFFSET 17.8396 -0.255518 -0.000602873
                }
              }
            }
          }
        }
      }
    }
  }
  JOINT LeftUpLeg
  {
    OFFSET -5.61296 -2.22332 -10.2353
    CHANNELS 3 Zrotation Xrotation Yrotation
    JOINT LeftLeg
    {
      OFFSET 2.56703 -44.7417 -7.93097
      CHANNELS 3 Zrotation Xrotation Yrotation
      JOINT LeftFoot
      {
        OFFSET 3.16933 -46.5642 -3.96578
        CHANNELS 3 Zrotation Xrotation Yrotation
        JOINT LeftToeBase
        {
          OFFSET 0.346054 -6.02161 12.8035
          CHANNELS 3 Zrotation Xrotation Yrotation
          End Site
          {
            OFFSET 0.134235 -1.35082 5.13018
          }
        }
      }
    }
  }
  JOINT RightUpLeg
  {
    OFFSET -5.7928 -1.72406 10.6446
    CHANNELS 3 Zrotation Xrotation Yrotation
    JOINT RightLeg
    {
      OFFSET -2.57161 -44.7178 -7.85259
      CHANNELS 3 Zrotation Xrotation Yrotation
      JOINT RightFoot
      {
        OFFSET -3.10148 -46.5936 -4.03391
        CHANNELS 3 Zrotation Xrotation Yrotation
        JOINT RightToeBase
        {
          OFFSET -0.0828122 -6.13587 12.8035
          CHANNELS 3 Zrotation Xrotation Yrotation
          End Site
          {
            OFFSET -0.131328 -1.35082 5.13018
          }
        }
      }
    }
  }
}
MOTION
Frames: 15
Frame Time: 0.03333333333333333
0.0000 93.1000 0.0000 59.4792 -55.3540 -26.5169 -70.9274 0.0892 87.6547 70.2641 65.4538 14.1933 8.0148 13.8801 9.1634 -117.9692 20.7218 169.8941 -151.2894 61.9816 -170.3328 -0.9413 -21.5097 -26.3360 -61.8124 39.5668 -148.0841 32.0474 -3.6354 -94.9238 -0.1564 -0.0501 -0.2744 -1.8592 7.2367 34.0268 -102.4564 -30.0064 120.5771 9.8742 -4.7377 69.0177 0.1020 -0.2084 -0.2611 -59.9423 13.8573 113.9263 -1.5430 39.1238 2.1116 1.0149 -9.0961 -1.1160 7.2148 -15.8065 3.1212 -29.8790 -15.2597 79.8583 0.9582 43.1583 -5.9470 -16.2419 4.9713 2.2929 2.4356 -24.2338 9.0559 
0.0000 93.1000 0.0000 61.9754 -49.1213 -24.2681 -70.8116 -0.2295 87.6845 65.1348 65.8780 16.0329 9.0008 13.6847 9.9456 -116.8258 19.2220 161.4232 -149.3891 62.3023 -174.8656 -1.9205 -22.1635 -28.2135 -58.5950 37.5151 -147.0980 31.8662 -3.9756 -96.1180 0.0759 -0.2540 0.0959 -1.8933 6.2721 35.5657 -108.6323 -25.1406 121.3471 8.5223 -4.0367 66.0364 -0.1237 0.4371 0.1854 -56.5593 14.8009 110.8885 -2.9134 41.1442 -5.5301 -0.7692 -11.7522 -0.8592 7.3259 -16.3842 6.6688 -30.5591 -11.9783 91.6860 2.2422 41.2733 2.8953 -9.5400 6.5793 1.1140 3.0023 -24.9551 2.4625 
0.0000 93.1000 0.0000 64.8447 -42.9595 -19.9879 -70.7234 -0.5555 87.4840 64.5086 66.8551 14.0338 8.7024 14.9674 9.5676 -116.9315 19.3527 157.9956 -152.5990 64.1984 -172.1307 -2.4060 -22.6999 -29.9176 -59.4097 32.1884 -143.2335 31.4121 -3.5157 -95.9185 0.0010 -0.3459 0.0986 -1.9225 5.8124 35.5256 -116.6180 -21.0283 117.7406 6.8609 -3.7036 63.5422 0.0091 0.6299 -0.0415 -51.2033 14.0053 107.2514 -4.3130 45.2823 -5.0453 0.6627 -14.9247 -1.6374 6.1720 -14.6446 5.8520 -31.6325 -12.6244 94.2199 1.1509 40.0563 1.0318 -7.3137 6.6566 0.3440 2.3135 -20.3239 2.1950 
0.0000 93.1000 0.0000 66.8260 -38.3972 -16.4463 -70.5118 -0.7816 87.4675 74.2964 68.2750 8.3818 6.7432 16.9880 7.0296 -115.4221 18.3210 151.7567 -152.6510 65.9091 -171.0267 -3.0531 -23.1569 -30.0854 -57.6728 28.5900 -144.0401 31.8615 -4.0439 -95.9868 -0.2229 -0.5935 0.6860 -2.2288 5.9954 38.6166 -124.5436 -14.5882 113.9000 5.0003 -3.6475 61.8223 -0.5225 1.4439 0.4565 -46.6365 12.7719 102.2328 -4.3574 49.0008 -5.2011 1.6774 -17.4216 -1.9768 5.7576 -14.7889 7.8048 -32.7738 -15.6717 87.7094 0.1422 40.1746 -8.0697 -10.3076 2.9171 0.6586 0.5814 -16.7044 17.9605 
0.0000 93.1000 0.0000 66.6771 -35.3306 -14.9506 -70.5096 -0.8054 87.4816 80.5898 69.6012 3.6477 5.3401 19.1868 4.8071 -114.4274 18.2588 147.7174 -158.3690 67.7622 -165.4830 -3.3291 -22.7639 -30.8901 -57.3474 26.6972 -142.9738 30.3624 -4.1435 -95.8345 -0.1350 -0.7559 1.1441 -2.4873 6.2561 40.7723 -129.6118 -8.8303 112.1009 3.7894 -3.0743 58.9404 -0.5450 1.8062 0.7440 -42.8538 12.6521 100.4146 -5.3216 53.1490 -7.0850 1.2661 -18.0731 -1.6518 5.4436 -15.0154 11.7485 -32.6514 -18.8191 82.6295 0.0869 40.2117 -8.4252 -13.3114 0.7942 0.8807 1.1141 -16.6835 19.7063 
0.0000 93.1000 0.0000 67.8447 -34.3432 -15.0048 -70.7309 -0.5798 87.5701 85.4950 71.1371 -0.2611 4.4817 20.5443 3.7144 -114.4308 18.4376 148.2326 -169.4687 68.7956 -158.3249 -3.1313 -21.8969 -30.6945 -57.0565 27.3021 -141.7459 29.4639 -4.8243 -96.9142 0.4379 -0.7487 1.2083 -2.7102 6.6311 42.3396 -132.4491 -4.0164 111.1625 1.4373 -2.0280 54.4333 -0.6113 1.6346 0.7305 -41.6194 13.0801 102.1131 -5.8659 54.6908 -8.7545 1.1385 -17.7715 -1.2838 5.1574 -14.7153 14.5661 -31.6986 -20.8727 82.0673 0.1143 42.1176 -7.6495 -11.7906 0.9081 0.6660 1.4850 -14.9428 18.0968 
0.0000 93.1000 0.0000 68.6852 -31.8790 -13.5471 -70.8659 1.0123 87.7809 89.3236 71.6200 -4.3837 5.6935 21.2331 3.9645 -114.2720 19.7363 149.0350 -175.1919 69.1843 -154.7786 -0.3950 -21.4794 -30.9018 -57.4337 27.8064 -140.0750 28.2287 -4.8571 -97.9720 -0.2899 1.5270 -1.2545 -2.2950 7.4428 42.8307 -134.5780 -0.7974 111.8582 -0.2832 -0.6556 49.9742 0.4453 -2.4810 -1.9207 -40.9290 14.4980 101.5994 -6.3056 56.7926 -6.8944 2.8496 -18.9361 -3.1510 4.9065 -13.1192 16.1587 -32.2852 -23.3536 79.3605 0.8006 43.7611 -6.4665 -10.6053 0.8728 2.1580 0.6850 -16.2396 17.7298 
0.0000 93.1000 0.0000 69.8791 -30.3004 -10.4702 -70.8808 -0.7156 87.8213 90.3587 72.3954 -4.7456 4.4790 21.1218 4.3438 -113.4724 20.7124 150.9512 177.0420 69.4573 -147.0842 -2.7931 -21.9467 -31.6868 -57.0776 28.8715 -138.7919 27.9543 -6.1048 -99.0917 0.1582 -0.8978 0.6488 -2.9855 6.9928 43.1248 -135.3480 2.0899 111.4615 -0.0325 -0.5691 47.7914 -0.3982 1.3225 0.8166 -39.3677 15.5606 100.9475 -5.5326 57.4291 -9.7315 1.0145 -18.7809 -1.3070 2.5376 -10.9558 14.4458 -33.7094 -26.2741 74.2457 1.4102 44.4373 -3.8155 -11.8443 1.0283 0.6829 1.3435 -16.5521 16.1676 
0.0000 93.1000 0.0000 69.5875 -28.3214 -10.0603 -70.8243 -0.5072 87.8722 86.3997 72.5095 -2.7596 5.0597 20.9546 3.8320 -114.2199 20.7211 150.1260 175.6917 68.8075 -142.8916 -2.9200 -21.8053 -32.0353 -57.4607 29.1493 -138.7692 25.9852 -6.2310 -99.5774 0.1310 -0.8048 0.7544 -2.8778 6.9611 43.1721 -135.6974 2.5842 109.9837 0.5511 -1.0440 45.0999 -0.3729 1.2866 0.8390 -38.8821 14.7839 99.1605 -6.5392 58.4411 -11.2210 1.2511 -18.0781 -1.4762 3.3636 -12.6745 13.1772 -33.9462 -28.0662 71.4497 1.3324 45.9965 -3.0411 -12.2028 -0.0825 0.4964 1.3916 -15.6019 15.2188 
0.0000 93.1000 0.0000 70.8469 -26.6606 -9.1611 -70.8460 -0.1465 87.8752 86.5398 72.1128 -2.4142 5.7767 21.1021 3.4497 -114.4516 20.9728 149.7594 173.9040 68.5824 -144.4006 -2.5003 -21.3938 -31.7949 -57.2002 29.2660 -138.9078 25.8938 -6.2238 -99.8399 -0.2749 -0.5226 0.2981 -3.0669 7.1164 43.8491 -137.6022 1.6869 108.9900 0.9215 -1.8057 44.0790 -0.3158 0.4443 0.1814 -38.0366 14.7020 97.7295 -6.6246 59.4091 -11.0886 0.7461 -18.0652 -1.5792 3.7476 -12.4715 12.1988 -35.1465 -28.7647 70.6187 0.9062 47.1565 -3.5965 -12.2139 -0.9586 0.9859 0.6775 -16.1923 16.2159 
0.0000 93.1000 0.0000 70.9614 -26.2307 -9.1066 -70.8853 -0.1292 87.9221 88.5802 72.4162 -3.2838 5.5885 21.1514 3.0096 -115.2044 21.7942 148.9567 175.0371 69.1324 -144.6030 -2.3388 -21.0861 -30.8429 -56.7732 29.7648 -140.0065 25.4229 -5.8449 -99.6792 0.1043 -0.3963 0.4627 -3.1650 6.7107 45.0538 -138.2958 3.2141 108.3709 1.3152 -2.7133 43.5362 -0.2420 0.6563 0.3611 -36.6658 15.6408 98.4077 -7.0404 59.8728 -11.1783 0.9692 -18.0011 -1.6918 4.0476 -12.9147 11.3848 -34.9863 -28.6939 70.5517 0.9745 47.2331 -3.8725 -10.8904 -0.9992 0.6973 0.8083 -15.9434 14.9943 
0.0000 93.1000 0.0000 70.9218 -24.9422 -8.2021 -70.9001 0.0563 87.9041 88.2515 71.8661 -2.6971 5.8807 21.1322 2.4916 -115.1736 22.1159 149.5943 174.1077 69.0920 -144.7022 -1.8671 -21.3006 -31.0666 -57.2685 29.6466 -140.9177 24.6575 -5.0466 -99.7820 0.1668 -0.0966 0.1988 -3.0558 7.0995 44.9181 -139.2827 3.4511 108.1039 1.6971 -3.1385 42.6612 -0.1772 0.2248 0.0940 -36.1819 15.6279 97.1097 -6.6456 59.2669 -11.5928 1.7344 -17.8506 -1.9114 3.9551 -13.2082 11.1314 -35.6625 -28.1451 70.2056 0.9098 47.3433 -4.9926 -11.0348 -1.3074 1.0201 1.2613 -15.4034 16.4400 
0.0000 93.1000 0.0000 70.9562 -25.1592 -8.2084 -70.8612 0.0230 87.8776 88.7603 71.4191 -4.7693 5.1588 21.1134 2.4787 -116.2947 22.8301 149.9917 172.5298 69.7212 -143.0282 -1.9545 -21.0105 -30.8753 -58.0339 29.5889 -140.1350 23.8513 -4.8829 -99.7524 -0.0636 -0.1197 0.1491 -3.1111 7.0030 43.9842 -139.8622 2.0634 107.1673 1.8554 -2.9978 42.7954 -0.1416 0.4409 0.2519 -36.1346 15.4635 95.6047 -7.1725 59.4674 -10.2394 0.9304 -18.0949 -1.8020 4.5453 -12.8410 11.2617 -36.1084 -27.9795 69.6150 1.2317 47.5910 -4.5470 -10.9425 -1.9778 0.8669 1.3836 -15.9901 14.8451 
0.0000 93.1000 0.0000 70.9660 -24.4377 -7.3920 -70.8647 -0.1111 87.8330 87.3629 71.4678 -2.0982 5.8846 21.2225 2.0070 -116.2578 23.0273 151.4767 172.0936 69.9322 -142.8737 -2.0810 -21.2349 -31.8429 -57.9650 29.8304 -140.1660 22.9849 -4.9965 -99.8856 -0.0848 -0.1612 0.1481 -3.1135 6.8529 43.7714 -140.1788 1.7320 107.2087 2.0881 -3.0565 42.6963 -0.0622 0.1188 0.0266 -35.8152 15.5892 95.1780 -7.1559 59.6048 -11.7323 1.0767 -16.8063 -1.7305 5.3958 -13.1434 11.8549 -36.2000 -28.0434 68.4200 0.9576 47.0888 -4.8146 -10.8879 -2.1665 1.0346 0.9091 -15.7645 17.3981 
0.0000 93.1000 0.0000 71.0762 -24.4283 -6.7792 -70.7753 -0.2783 87.8130 86.5199 71.6057 -1.1665 5.7961 20.8839 2.8669 -116.2373 22.9224 151.0070 171.5190 69.8899 -142.8530 -2.1642 -21.2704 -30.8921 -57.6508 29.9852 -140.1975 23.1612 -5.2112 -99.8074 -0.0485 -0.1363 0.0314 -2.9409 6.8009 43.7007 -140.5257 1.5775 107.0082 1.9817 -2.8822 42.6971 -0.0073 0.0959 -0.0994 -35.9174 15.5848 94.9643 -7.2063 59.4052 -11.8368 1.5034 -16.8351 -1.8362 5.1378 -13.0944 10.7964 -36.8032 -28.6385 67.5017 0.8869 46.3204 -4.9257 -11.2626 -1.8191 0.9651 1.0940 -17.0794 18.1331 
